<svg width="807" height="807" viewBox="0 0 807 807" fill="none" xmlns="http://www.w3.org/2000/svg">
<rect width="807" height="807" fill="white"/>
<path d="M94.56 551.64C95.68 551.64 96.84 551.96 98.04 552.6C99.32 553.16 100.28 553.92 100.92 554.88L130.08 599.76L124.08 599.52L153.96 554.88C155.48 552.72 157.44 551.64 159.84 551.64C161.76 551.64 163.48 552.32 165 553.68C166.52 555.04 167.28 556.8 167.28 558.96V628.44C167.28 630.52 166.6 632.28 165.24 633.72C163.88 635.08 162.08 635.76 159.84 635.76C157.6 635.76 155.76 635.08 154.32 633.72C152.96 632.28 152.28 630.52 152.28 628.44V571.92L156.96 573L132.48 610.32C131.76 611.2 130.84 611.96 129.72 612.6C128.68 613.24 127.6 613.52 126.48 613.44C125.44 613.52 124.36 613.24 123.24 612.6C122.2 611.96 121.32 611.2 120.6 610.32L97.68 574.08L100.8 567.72V628.44C100.8 630.52 100.16 632.28 98.88 633.72C97.6 635.08 95.92 635.76 93.84 635.76C91.84 635.76 90.2 635.08 88.92 633.72C87.64 632.28 87 630.52 87 628.44V558.96C87 556.96 87.72 555.24 89.16 553.8C90.68 552.36 92.48 551.64 94.56 551.64ZM259.24 551.4C261.08 551.4 262.72 552.12 264.16 553.56C265.68 554.92 266.44 556.68 266.44 558.84C266.44 559.56 266.32 560.32 266.08 561.12C265.92 561.84 265.6 562.56 265.12 563.28L237.88 602.28L240.04 594V628.44C240.04 630.52 239.32 632.28 237.88 633.72C236.52 635.08 234.92 635.76 233.08 635.76C231.08 635.76 229.36 635.08 227.92 633.72C226.56 632.28 225.88 630.52 225.88 628.44V594.96L226.84 598.8L200.92 564.36C200.12 563.32 199.56 562.32 199.24 561.36C198.92 560.4 198.76 559.52 198.76 558.72C198.76 556.56 199.6 554.8 201.28 553.44C202.96 552.08 204.68 551.4 206.44 551.4C208.68 551.4 210.64 552.52 212.32 554.76L235.36 586.56L232 586.08L253.24 555C254.92 552.6 256.92 551.4 259.24 551.4Z" fill="black"/>
<path d="M359.198 635.76C356.958 635.76 355.118 635.08 353.678 633.72C352.318 632.28 351.638 630.52 351.638 628.44V559.08C351.638 557 352.318 555.28 353.678 553.92C355.118 552.48 356.878 551.76 358.958 551.76H397.958C400.038 551.76 401.758 552.44 403.118 553.8C404.558 555.08 405.278 556.76 405.278 558.84C405.278 560.6 404.558 562.16 403.118 563.52C401.758 564.88 400.038 565.56 397.958 565.56H365.558L366.638 564.12V588.24L365.798 586.68H392.558C394.638 586.68 396.358 587.36 397.718 588.72C399.158 590 399.878 591.68 399.878 593.76C399.878 595.52 399.158 597.08 397.718 598.44C396.358 599.8 394.638 600.48 392.558 600.48H365.558L366.638 599.4V628.44C366.638 630.52 365.878 632.28 364.358 633.72C362.918 635.08 361.198 635.76 359.198 635.76ZM515.646 593.76C515.646 599.76 514.646 605.36 512.646 610.56C510.646 615.76 507.806 620.36 504.126 624.36C500.526 628.28 496.206 631.36 491.166 633.6C486.206 635.84 480.766 636.96 474.846 636.96C468.926 636.96 463.486 635.84 458.526 633.6C453.566 631.36 449.246 628.28 445.566 624.36C441.966 620.36 439.166 615.76 437.166 610.56C435.166 605.36 434.166 599.76 434.166 593.76C434.166 587.76 435.166 582.16 437.166 576.96C439.166 571.76 441.966 567.2 445.566 563.28C449.246 559.28 453.566 556.16 458.526 553.92C463.486 551.68 468.926 550.56 474.846 550.56C480.766 550.56 486.206 551.68 491.166 553.92C496.206 556.16 500.526 559.28 504.126 563.28C507.806 567.2 510.646 571.76 512.646 576.96C514.646 582.16 515.646 587.76 515.646 593.76ZM500.046 593.76C500.046 588.4 498.966 583.56 496.806 579.24C494.646 574.84 491.686 571.36 487.926 568.8C484.166 566.24 479.806 564.96 474.846 564.96C469.886 564.96 465.526 566.24 461.766 568.8C458.006 571.36 455.046 574.8 452.886 579.12C450.806 583.44 449.766 588.32 449.766 593.76C449.766 599.12 450.806 604 452.886 608.4C455.046 612.72 458.006 616.16 461.766 618.72C465.526 621.28 469.886 622.56 474.846 622.56C479.806 622.56 484.166 621.28 487.926 618.72C491.686 616.16 494.646 612.72 496.806 608.4C498.966 604 500.046 599.12 500.046 593.76ZM557.38 551.64C558.5 551.64 559.66 551.96 560.86 552.6C562.14 553.16 563.1 553.92 563.74 554.88L592.9 599.76L586.9 599.52L616.78 554.88C618.3 552.72 620.26 551.64 622.66 551.64C624.58 551.64 626.3 552.32 627.82 553.68C629.34 555.04 630.1 556.8 630.1 558.96V628.44C630.1 630.52 629.42 632.28 628.06 633.72C626.7 635.08 624.9 635.76 622.66 635.76C620.42 635.76 618.58 635.08 617.14 633.72C615.78 632.28 615.1 630.52 615.1 628.44V571.92L619.78 573L595.3 610.32C594.58 611.2 593.66 611.96 592.54 612.6C591.5 613.24 590.42 613.52 589.3 613.44C588.26 613.52 587.18 613.24 586.06 612.6C585.02 611.96 584.14 611.2 583.42 610.32L560.5 574.08L563.62 567.72V628.44C563.62 630.52 562.98 632.28 561.7 633.72C560.42 635.08 558.74 635.76 556.66 635.76C554.66 635.76 553.02 635.08 551.74 633.72C550.46 632.28 549.82 630.52 549.82 628.44V558.96C549.82 556.96 550.54 555.24 551.98 553.8C553.5 552.36 555.3 551.64 557.38 551.64ZM675.861 551.76H716.061C718.141 551.76 719.861 552.44 721.221 553.8C722.661 555.08 723.381 556.76 723.381 558.84C723.381 560.84 722.661 562.48 721.221 563.76C719.861 564.96 718.141 565.56 716.061 565.56H682.461L683.541 563.52V586.92L682.581 585.96H710.661C712.741 585.96 714.461 586.64 715.821 588C717.261 589.28 717.981 590.96 717.981 593.04C717.981 595.04 717.261 596.68 715.821 597.96C714.461 599.16 712.741 599.76 710.661 599.76H682.941L683.541 598.8V623.04L682.581 621.96H716.061C718.141 621.96 719.861 622.68 721.221 624.12C722.661 625.48 723.381 627.08 723.381 628.92C723.381 630.92 722.661 632.56 721.221 633.84C719.861 635.12 718.141 635.76 716.061 635.76H675.861C673.781 635.76 672.021 635.08 670.581 633.72C669.221 632.28 668.541 630.52 668.541 628.44V559.08C668.541 557 669.221 555.28 670.581 553.92C672.021 552.48 673.781 551.76 675.861 551.76Z" fill="#FE0000"/>
<path d="M401.095 158.211C367.628 162.49 340.162 175.597 316.028 198.869C297.895 216.122 293.362 225.083 300.428 229.764C305.095 232.84 308.162 231.235 316.028 221.338C340.695 190.175 378.428 172.789 421.095 172.789C465.628 172.789 500.295 190.175 521.628 223.344C524.962 228.56 527.762 233.375 527.762 234.177C527.762 235.247 496.695 235.782 424.828 235.916C356.695 236.183 322.028 236.718 322.428 237.655C322.828 238.591 358.828 238.992 426.428 238.992H529.762L530.162 242.603C530.562 245.546 529.895 246.348 527.495 246.883C525.762 247.284 475.895 247.953 416.562 248.354C299.228 249.29 303.495 249.023 295.362 256.78C280.828 270.556 286.828 293.426 306.295 298.375C308.962 299.043 362.695 299.846 427.362 300.113C540.562 300.648 543.628 300.648 546.562 303.189C550.428 306.8 551.628 310.545 550.162 314.825C547.495 322.315 555.628 321.914 403.895 322.582L263.095 323.251L254.295 327.531C243.362 332.881 233.895 342.778 231.762 350.669C227.895 365.247 239.095 381.965 257.495 388.786C267.095 392.397 276.028 390.926 289.628 383.57C309.895 372.469 318.828 372.469 335.895 383.703C347.095 390.926 354.695 393.467 364.962 393.467C375.228 393.467 380.028 391.862 392.962 384.238C399.228 380.494 406.028 377.15 408.162 376.615C415.495 375.01 423.228 377.284 434.028 384.372C447.095 392.932 452.828 394.938 464.028 395.072C475.095 395.072 479.362 393.6 496.695 384.506C510.295 377.551 510.562 377.417 522.028 377.417C530.962 377.417 535.228 378.086 539.762 380.226C551.762 385.71 558.295 395.205 559.495 409.115L560.162 417.541L524.962 416.738C433.495 414.866 338.962 413.93 334.962 415.133C328.962 416.738 320.028 423.693 315.362 430.38C312.562 434.392 311.228 438.405 310.295 445.761C308.162 461.275 307.362 463.415 302.562 466.625C297.495 470.102 287.362 471.841 282.562 470.236C274.162 467.16 269.495 450.977 270.828 429.444C271.362 422.489 272.028 415.267 272.562 413.261C273.495 409.249 269.495 404.166 265.095 404.166C259.895 404.166 257.495 408.58 255.762 421.018C254.428 430.246 254.428 435.864 255.495 445.894C258.828 474.649 268.162 485.75 288.962 485.75C295.628 485.75 299.628 484.814 305.095 482.273C318.695 475.987 323.362 468.765 325.095 452.047C326.162 440.277 328.428 435.997 335.628 431.718C339.628 429.444 343.628 429.31 455.095 431.049C564.028 432.654 570.562 432.654 572.828 430.514C576.428 426.769 575.895 403.364 571.895 393.199C564.562 374.074 549.362 363.909 525.628 361.769C512.695 360.699 504.695 362.839 486.695 372.201C466.028 383.035 458.695 382.901 442.428 371.399C432.162 364.177 423.628 361.368 411.895 361.368C402.428 361.368 393.228 364.712 384.695 371.265C372.695 380.36 359.762 380.627 346.428 371.934C329.895 361.234 328.295 360.699 313.762 360.699H300.428L284.695 368.59C269.228 376.347 268.962 376.481 263.362 374.743C252.562 371.533 244.295 360.432 247.228 352.808C248.562 349.331 250.162 350.267 253.095 356.018C256.295 362.304 262.695 366.718 268.428 366.718C270.695 366.718 279.095 363.374 287.628 359.094C302.562 351.471 302.962 351.337 314.295 351.337C325.628 351.337 325.895 351.471 335.762 357.49C350.028 366.183 353.628 367.387 365.762 367.387C377.095 367.253 378.695 366.718 393.628 357.49C401.228 352.942 402.028 352.675 413.628 352.675C426.828 352.675 423.895 351.605 449.095 365.915C455.628 369.66 457.628 370.061 467.095 370.061C476.962 370.061 478.428 369.66 487.095 364.712C506.562 353.745 508.828 352.942 519.628 352.273C532.028 351.605 542.562 354.012 555.628 360.699C565.895 365.782 566.428 366.049 566.428 364.043C566.428 362.037 548.695 353.477 539.362 351.07C533.628 349.599 527.628 349.197 519.628 349.599C509.895 350.267 506.695 351.07 499.628 354.681C474.295 367.922 475.628 367.387 466.428 367.253C459.095 367.253 456.428 366.584 449.762 362.706C427.095 349.866 425.495 349.331 414.162 349.331C403.095 349.331 402.028 349.599 385.095 358.961C369.362 367.654 356.428 366.718 338.162 355.483C320.295 344.383 309.362 344.65 286.162 356.687C278.295 360.699 270.962 364.043 269.628 364.043C264.562 364.043 258.695 359.763 255.228 353.343L251.628 346.79L257.762 343.313C260.962 341.306 267.228 339.3 271.362 338.632C275.628 338.097 338.162 337.695 410.428 337.829C512.828 337.963 543.095 337.695 547.762 336.358C557.628 333.683 566.428 322.181 566.428 312.15C566.428 301.986 559.895 291.955 550.695 288.076C544.695 285.535 540.162 285.401 427.228 284.733C314.428 283.93 309.895 283.93 306.562 281.389C301.895 277.912 301.495 272.963 305.628 268.282L308.828 264.404L420.028 263.735C528.028 263.066 531.228 262.932 535.628 260.391C546.695 253.838 548.695 242.737 541.228 226.955C530.295 203.416 508.562 181.883 484.695 170.783C459.495 159.147 429.228 154.6 401.095 158.211Z" fill="#FE0000"/>
<path d="M393.629 188.971C392.695 190.576 395.362 192.85 398.429 192.85C401.495 192.85 404.162 190.576 403.229 188.971C402.695 188.169 400.562 187.5 398.429 187.5C396.295 187.5 394.162 188.169 393.629 188.971Z" fill="#FE0000"/>
<path d="M441.629 190.309C439.895 193.118 445.495 195.124 448.962 192.984C451.495 191.379 449.629 188.838 445.762 188.838C444.029 188.838 442.162 189.507 441.629 190.309Z" fill="#FE0000"/>
<path d="M418.962 205.021C416.962 208.365 424.962 210.237 427.629 207.027C428.829 205.556 428.695 205.021 426.962 204.353C423.629 203.149 420.029 203.416 418.962 205.021Z" fill="#FE0000"/>
<path d="M367.362 205.689C365.629 207.428 368.029 208.899 372.562 208.899C375.762 208.899 377.095 208.23 377.095 206.893C377.095 205.556 375.762 204.887 372.695 204.887C370.162 204.887 367.762 205.288 367.362 205.689Z" fill="#FE0000"/>
<path d="M469.628 207.695C467.762 210.772 474.562 212.778 478.428 210.237C480.162 209.033 480.162 208.765 478.428 207.562C475.762 205.823 470.828 205.823 469.628 207.695Z" fill="#FE0000"/>
<path d="M529.895 448.436C521.762 456.995 526.962 456.594 428.295 456.46C370.962 456.326 338.429 456.728 338.429 457.53C338.429 458.734 411.095 459.67 497.229 459.67H519.362L525.762 455.658C532.429 451.512 536.829 446.429 534.695 445.226C534.162 444.824 531.895 446.296 529.895 448.436Z" fill="#FE0000"/>
<path d="M551.762 450.575C550.695 450.977 546.828 454.186 543.095 457.798C539.495 461.275 533.495 465.555 529.762 467.293L523.095 470.37L431.762 470.771C349.895 471.038 340.295 471.306 338.162 473.312C335.095 476.121 335.095 480.668 338.295 483.61C340.562 485.616 348.162 485.75 433.895 485.483L527.095 485.081L534.828 481.872C549.228 476.121 563.762 461.007 560.295 455.524C558.295 452.18 554.028 449.773 551.762 450.575Z" fill="#FE0000"/>
</svg>
