<svg width="485" height="485" viewBox="0 0 485 485" fill="none" xmlns="http://www.w3.org/2000/svg">
<path d="M240.095 79.2106C206.628 83.4904 179.162 96.5974 155.028 119.869C136.895 137.122 132.362 146.083 139.428 150.764C144.095 153.84 147.162 152.235 155.028 142.338C179.695 111.175 217.428 93.7887 260.095 93.7887C304.628 93.7887 339.295 111.175 360.628 144.344C363.962 149.56 366.762 154.375 366.762 155.177C366.762 156.247 335.695 156.782 263.828 156.916C195.695 157.183 161.028 157.718 161.428 158.655C161.828 159.591 197.828 159.992 265.428 159.992H368.762L369.162 163.603C369.562 166.546 368.895 167.348 366.495 167.883C364.762 168.284 314.895 168.953 255.562 169.354C138.228 170.29 142.495 170.023 134.362 177.78C119.828 191.556 125.828 214.426 145.295 219.375C147.962 220.043 201.695 220.846 266.362 221.113C379.562 221.648 382.628 221.648 385.562 224.189C389.428 227.8 390.628 231.545 389.162 235.825C386.495 243.315 394.628 242.914 242.895 243.582L102.095 244.251L93.2951 248.531C82.3618 253.881 72.8951 263.778 70.7618 271.669C66.8951 286.247 78.0951 302.965 96.4951 309.786C106.095 313.397 115.028 311.926 128.628 304.57C148.895 293.469 157.828 293.469 174.895 304.703C186.095 311.926 193.695 314.467 203.962 314.467C214.228 314.467 219.028 312.862 231.962 305.238C238.228 301.494 245.028 298.15 247.162 297.615C254.495 296.01 262.228 298.284 273.028 305.372C286.095 313.932 291.828 315.938 303.028 316.072C314.095 316.072 318.362 314.6 335.695 305.506C349.295 298.551 349.562 298.417 361.028 298.417C369.962 298.417 374.228 299.086 378.762 301.226C390.762 306.71 397.295 316.205 398.495 330.115L399.162 338.541L363.962 337.738C272.495 335.866 177.962 334.93 173.962 336.133C167.962 337.738 159.028 344.693 154.362 351.38C151.562 355.392 150.228 359.405 149.295 366.761C147.162 382.275 146.362 384.415 141.562 387.625C136.495 391.102 126.362 392.841 121.562 391.236C113.162 388.16 108.495 371.977 109.828 350.444C110.362 343.489 111.028 336.267 111.562 334.261C112.495 330.249 108.495 325.166 104.095 325.166C98.8951 325.166 96.4951 329.58 94.7618 342.018C93.4284 351.246 93.4284 356.864 94.4951 366.894C97.8284 395.649 107.162 406.75 127.962 406.75C134.628 406.75 138.628 405.814 144.095 403.273C157.695 396.987 162.362 389.765 164.095 373.047C165.162 361.277 167.428 356.997 174.628 352.718C178.628 350.444 182.628 350.31 294.095 352.049C403.028 353.654 409.562 353.654 411.828 351.514C415.428 347.769 414.895 324.364 410.895 314.199C403.562 295.074 388.362 284.909 364.628 282.769C351.695 281.699 343.695 283.839 325.695 293.201C305.028 304.035 297.695 303.901 281.428 292.399C271.162 285.177 262.628 282.368 250.895 282.368C241.428 282.368 232.228 285.712 223.695 292.265C211.695 301.36 198.762 301.627 185.428 292.934C168.895 282.234 167.295 281.699 152.762 281.699H139.428L123.695 289.59C108.228 297.347 107.962 297.481 102.362 295.743C91.5618 292.533 83.2951 281.432 86.2284 273.808C87.5618 270.331 89.1618 271.267 92.0951 277.018C95.2951 283.304 101.695 287.718 107.428 287.718C109.695 287.718 118.095 284.374 126.628 280.094C141.562 272.471 141.962 272.337 153.295 272.337C164.628 272.337 164.895 272.471 174.762 278.49C189.028 287.183 192.628 288.387 204.762 288.387C216.095 288.253 217.695 287.718 232.628 278.49C240.228 273.942 241.028 273.675 252.628 273.675C265.828 273.675 262.895 272.605 288.095 286.915C294.628 290.66 296.628 291.061 306.095 291.061C315.962 291.061 317.428 290.66 326.095 285.712C345.562 274.745 347.828 273.942 358.628 273.273C371.028 272.605 381.562 275.012 394.628 281.699C404.895 286.782 405.428 287.049 405.428 285.043C405.428 283.037 387.695 274.477 378.362 272.07C372.628 270.599 366.628 270.197 358.628 270.599C348.895 271.267 345.695 272.07 338.628 275.681C313.295 288.922 314.628 288.387 305.428 288.253C298.095 288.253 295.428 287.584 288.762 283.706C266.095 270.866 264.495 270.331 253.162 270.331C242.095 270.331 241.028 270.599 224.095 279.961C208.362 288.654 195.428 287.718 177.162 276.483C159.295 265.383 148.362 265.65 125.162 277.687C117.295 281.699 109.962 285.043 108.628 285.043C103.562 285.043 97.6951 280.763 94.2284 274.343L90.6284 267.79L96.7618 264.313C99.9618 262.306 106.228 260.3 110.362 259.632C114.628 259.097 177.162 258.695 249.428 258.829C351.828 258.963 382.095 258.695 386.762 257.358C396.628 254.683 405.428 243.181 405.428 233.15C405.428 222.986 398.895 212.955 389.695 209.076C383.695 206.535 379.162 206.401 266.228 205.733C153.428 204.93 148.895 204.93 145.562 202.389C140.895 198.912 140.495 193.963 144.628 189.282L147.828 185.404L259.028 184.735C367.028 184.066 370.228 183.932 374.628 181.391C385.695 174.838 387.695 163.737 380.228 147.955C369.295 124.416 347.562 102.883 323.695 91.7826C298.495 80.1468 268.228 75.5995 240.095 79.2106Z" fill="#FE0000"/>
<path d="M232.629 109.971C231.695 111.576 234.362 113.85 237.429 113.85C240.495 113.85 243.162 111.576 242.229 109.971C241.695 109.169 239.562 108.5 237.429 108.5C235.295 108.5 233.162 109.169 232.629 109.971Z" fill="#FE0000"/>
<path d="M280.629 111.309C278.895 114.118 284.495 116.124 287.962 113.984C290.495 112.379 288.629 109.838 284.762 109.838C283.029 109.838 281.162 110.507 280.629 111.309Z" fill="#FE0000"/>
<path d="M257.962 126.021C255.962 129.365 263.962 131.237 266.629 128.027C267.829 126.556 267.695 126.021 265.962 125.353C262.629 124.149 259.029 124.416 257.962 126.021Z" fill="#FE0000"/>
<path d="M206.362 126.689C204.629 128.428 207.029 129.899 211.562 129.899C214.762 129.899 216.095 129.23 216.095 127.893C216.095 126.556 214.762 125.887 211.695 125.887C209.162 125.887 206.762 126.288 206.362 126.689Z" fill="#FE0000"/>
<path d="M308.628 128.696C306.762 131.772 313.562 133.778 317.428 131.237C319.162 130.033 319.162 129.765 317.428 128.562C314.762 126.823 309.828 126.823 308.628 128.696Z" fill="#FE0000"/>
<path d="M368.895 369.436C360.762 377.995 365.962 377.594 267.295 377.46C209.962 377.326 177.429 377.728 177.429 378.53C177.429 379.734 250.095 380.67 336.229 380.67H358.362L364.762 376.658C371.429 372.512 375.829 367.429 373.695 366.226C373.162 365.824 370.895 367.296 368.895 369.436Z" fill="#FE0000"/>
<path d="M390.762 371.575C389.695 371.977 385.828 375.186 382.095 378.798C378.495 382.275 372.495 386.555 368.762 388.293L362.095 391.37L270.762 391.771C188.895 392.038 179.295 392.306 177.162 394.312C174.095 397.121 174.095 401.668 177.295 404.61C179.562 406.616 187.162 406.75 272.895 406.483L366.095 406.081L373.828 402.872C388.228 397.121 402.762 382.007 399.295 376.524C397.295 373.18 393.028 370.773 390.762 371.575Z" fill="#FE0000"/>
</svg>
