<svg width="855" height="594" viewBox="0 0 855 594" fill="none" xmlns="http://www.w3.org/2000/svg">
<path d="M37.3082 566.455C37.3082 570.499 36.5415 573.94 35.0082 576.778C33.4869 579.615 31.4102 581.782 28.7781 583.279C26.158 584.765 23.212 585.507 19.94 585.507C16.6438 585.507 13.6857 584.759 11.0657 583.261C8.44567 581.764 6.375 579.597 4.85369 576.76C3.33239 573.922 2.57173 570.487 2.57173 566.455C2.57173 562.41 3.33239 558.969 4.85369 556.131C6.375 553.294 8.44567 551.133 11.0657 549.648C13.6857 548.151 16.6438 547.402 19.94 547.402C23.212 547.402 26.158 548.151 28.7781 549.648C31.4102 551.133 33.4869 553.294 35.0082 556.131C36.5415 558.969 37.3082 562.41 37.3082 566.455ZM29.3576 566.455C29.3576 563.835 28.9652 561.625 28.1804 559.826C27.4077 558.027 26.315 556.663 24.9023 555.733C23.4897 554.803 21.8356 554.338 19.94 554.338C18.0444 554.338 16.3903 554.803 14.9776 555.733C13.565 556.663 12.4663 558.027 11.6815 559.826C10.9087 561.625 10.5224 563.835 10.5224 566.455C10.5224 569.075 10.9087 571.284 11.6815 573.083C12.4663 574.882 13.565 576.246 14.9776 577.176C16.3903 578.106 18.0444 578.571 19.94 578.571C21.8356 578.571 23.4897 578.106 24.9023 577.176C26.315 576.246 27.4077 574.882 28.1804 573.083C28.9652 571.284 29.3576 569.075 29.3576 566.455ZM86.2621 558.576C86.1172 557.115 85.4954 555.98 84.3967 555.172C83.2979 554.363 81.8068 553.958 79.9233 553.958C78.6435 553.958 77.5629 554.139 76.6815 554.501C75.8001 554.852 75.1239 555.341 74.6531 555.968C74.1943 556.596 73.9649 557.309 73.9649 558.105C73.9407 558.77 74.0796 559.349 74.3814 559.844C74.6953 560.339 75.1239 560.768 75.6673 561.13C76.2106 561.48 76.8384 561.788 77.5508 562.054C78.2631 562.307 79.0238 562.525 79.8328 562.706L83.1651 563.502C84.783 563.865 86.2681 564.348 87.6204 564.951C88.9727 565.555 90.1438 566.298 91.1339 567.179C92.1239 568.06 92.8906 569.099 93.434 570.294C93.9894 571.489 94.2731 572.86 94.2852 574.405C94.2731 576.675 93.6935 578.643 92.5465 580.309C91.4116 581.963 89.7695 583.249 87.6204 584.167C85.4833 585.072 82.9055 585.525 79.8871 585.525C76.8928 585.525 74.2848 585.066 72.0632 584.149C69.8537 583.231 68.1271 581.873 66.8835 580.074C65.652 578.263 65.006 576.023 64.9457 573.355H72.5341C72.6186 574.598 72.9748 575.637 73.6026 576.47C74.2426 577.291 75.0938 577.913 76.1563 578.335C77.2308 578.746 78.4443 578.951 79.7965 578.951C81.1247 578.951 82.2777 578.758 83.2557 578.371C84.2457 577.985 85.0124 577.448 85.5558 576.76C86.0991 576.071 86.3707 575.281 86.3707 574.387C86.3707 573.554 86.1232 572.854 85.6282 572.286C85.1453 571.719 84.4329 571.236 83.4911 570.837C82.5614 570.439 81.4205 570.077 80.0682 569.751L76.0295 568.737C72.9024 567.976 70.4332 566.787 68.6222 565.169C66.8111 563.551 65.9116 561.371 65.9237 558.631C65.9116 556.385 66.5092 554.423 67.7166 552.745C68.9361 551.066 70.6083 549.756 72.7333 548.815C74.8583 547.873 77.2731 547.402 79.9776 547.402C82.7305 547.402 85.1332 547.873 87.1857 548.815C89.2504 549.756 90.8562 551.066 92.0032 552.745C93.1502 554.423 93.7418 556.367 93.7781 558.576H86.2621ZM110.716 585H102.313L115.117 547.909H125.223L138.009 585H129.606L120.315 556.385H120.025L110.716 585ZM110.191 570.421H130.041V576.542H110.191V570.421ZM148.084 585V547.909H162.934C165.663 547.909 167.939 548.314 169.762 549.123C171.585 549.931 172.956 551.054 173.873 552.491C174.791 553.916 175.25 555.558 175.25 557.417C175.25 558.866 174.96 560.14 174.381 561.239C173.801 562.325 173.004 563.219 171.99 563.919C170.988 564.607 169.841 565.096 168.549 565.386V565.748C169.961 565.809 171.284 566.207 172.515 566.944C173.759 567.68 174.767 568.712 175.54 570.04C176.312 571.357 176.699 572.926 176.699 574.749C176.699 576.717 176.21 578.474 175.232 580.02C174.266 581.553 172.835 582.766 170.939 583.66C169.044 584.553 166.708 585 163.931 585H148.084ZM155.926 578.589H162.319C164.504 578.589 166.098 578.172 167.1 577.339C168.102 576.494 168.603 575.371 168.603 573.971C168.603 572.944 168.356 572.039 167.861 571.254C167.366 570.469 166.659 569.853 165.742 569.407C164.836 568.96 163.756 568.737 162.5 568.737H155.926V578.589ZM155.926 563.43H161.739C162.814 563.43 163.768 563.243 164.601 562.869C165.446 562.482 166.11 561.939 166.593 561.239C167.088 560.538 167.335 559.699 167.335 558.721C167.335 557.381 166.859 556.3 165.905 555.479C164.963 554.658 163.623 554.248 161.884 554.248H155.926V563.43ZM221.496 566.455C221.496 570.499 220.729 573.94 219.196 576.778C217.675 579.615 215.598 581.782 212.966 583.279C210.346 584.765 207.4 585.507 204.128 585.507C200.832 585.507 197.873 584.759 195.253 583.261C192.633 581.764 190.563 579.597 189.041 576.76C187.52 573.922 186.759 570.487 186.759 566.455C186.759 562.41 187.52 558.969 189.041 556.131C190.563 553.294 192.633 551.133 195.253 549.648C197.873 548.151 200.832 547.402 204.128 547.402C207.4 547.402 210.346 548.151 212.966 549.648C215.598 551.133 217.675 553.294 219.196 556.131C220.729 558.969 221.496 562.41 221.496 566.455ZM213.545 566.455C213.545 563.835 213.153 561.625 212.368 559.826C211.595 558.027 210.503 556.663 209.09 555.733C207.677 554.803 206.023 554.338 204.128 554.338C202.232 554.338 200.578 554.803 199.165 555.733C197.753 556.663 196.654 558.027 195.869 559.826C195.096 561.625 194.71 563.835 194.71 566.455C194.71 569.075 195.096 571.284 195.869 573.083C196.654 574.882 197.753 576.246 199.165 577.176C200.578 578.106 202.232 578.571 204.128 578.571C206.023 578.571 207.677 578.106 209.09 577.176C210.503 576.246 211.595 574.882 212.368 573.083C213.153 571.284 213.545 569.075 213.545 566.455ZM232.915 585V547.909H247.548C250.35 547.909 252.74 548.41 254.72 549.412C256.713 550.402 258.228 551.809 259.266 553.632C260.317 555.443 260.842 557.574 260.842 560.025C260.842 562.488 260.311 564.607 259.248 566.382C258.186 568.145 256.646 569.497 254.63 570.439C252.626 571.381 250.199 571.852 247.349 571.852H237.551V565.549H246.082C247.579 565.549 248.822 565.344 249.812 564.933C250.802 564.523 251.539 563.907 252.022 563.086C252.517 562.265 252.764 561.245 252.764 560.025C252.764 558.794 252.517 557.755 252.022 556.91C251.539 556.065 250.796 555.425 249.794 554.99C248.804 554.544 247.555 554.32 246.045 554.32H240.757V585H232.915ZM252.946 568.121L262.164 585H253.507L244.488 568.121H252.946ZM303.407 572.105H310.072L313.422 576.415L316.719 580.255L322.931 588.043H315.614L311.34 582.79L309.148 579.675L303.407 572.105ZM323.492 566.455C323.492 570.499 322.725 573.94 321.192 576.778C319.671 579.615 317.594 581.782 314.962 583.279C312.342 584.765 309.396 585.507 306.124 585.507C302.828 585.507 299.869 584.759 297.249 583.261C294.629 581.764 292.559 579.597 291.037 576.76C289.516 573.922 288.755 570.487 288.755 566.455C288.755 562.41 289.516 558.969 291.037 556.131C292.559 553.294 294.629 551.133 297.249 549.648C299.869 548.151 302.828 547.402 306.124 547.402C309.396 547.402 312.342 548.151 314.962 549.648C317.594 551.133 319.671 553.294 321.192 556.131C322.725 558.969 323.492 562.41 323.492 566.455ZM315.541 566.455C315.541 563.835 315.149 561.625 314.364 559.826C313.591 558.027 312.499 556.663 311.086 555.733C309.673 554.803 308.019 554.338 306.124 554.338C304.228 554.338 302.574 554.803 301.161 555.733C299.749 556.663 298.65 558.027 297.865 559.826C297.092 561.625 296.706 563.835 296.706 566.455C296.706 569.075 297.092 571.284 297.865 573.083C298.65 574.882 299.749 576.246 301.161 577.176C302.574 578.106 304.228 578.571 306.124 578.571C308.019 578.571 309.673 578.106 311.086 577.176C312.499 576.246 313.591 574.882 314.364 573.083C315.149 571.284 315.541 569.075 315.541 566.455ZM357.821 547.909H365.663V571.996C365.663 574.701 365.017 577.067 363.725 579.096C362.445 581.124 360.652 582.706 358.346 583.841C356.04 584.964 353.354 585.525 350.287 585.525C347.208 585.525 344.516 584.964 342.21 583.841C339.904 582.706 338.111 581.124 336.831 579.096C335.551 577.067 334.911 574.701 334.911 571.996V547.909H342.753V571.326C342.753 572.739 343.061 573.995 343.677 575.093C344.304 576.192 345.186 577.055 346.321 577.683C347.456 578.311 348.778 578.625 350.287 578.625C351.808 578.625 353.13 578.311 354.253 577.683C355.388 577.055 356.264 576.192 356.879 575.093C357.507 573.995 357.821 572.739 357.821 571.326V547.909ZM377.725 585V547.909H402.718V554.375H385.567V563.213H401.432V569.678H385.567V578.534H402.79V585H377.725ZM438.677 547.909L447.642 576.089H447.986L456.969 547.909H465.662L452.876 585H442.77L429.966 547.909H438.677ZM507.729 566.455C507.729 570.499 506.963 573.94 505.429 576.778C503.908 579.615 501.831 581.782 499.199 583.279C496.579 584.765 493.633 585.507 490.361 585.507C487.065 585.507 484.107 584.759 481.487 583.261C478.867 581.764 476.796 579.597 475.275 576.76C473.754 573.922 472.993 570.487 472.993 566.455C472.993 562.41 473.754 558.969 475.275 556.131C476.796 553.294 478.867 551.133 481.487 549.648C484.107 548.151 487.065 547.402 490.361 547.402C493.633 547.402 496.579 548.151 499.199 549.648C501.831 551.133 503.908 553.294 505.429 556.131C506.963 558.969 507.729 562.41 507.729 566.455ZM499.779 566.455C499.779 563.835 499.386 561.625 498.602 559.826C497.829 558.027 496.736 556.663 495.324 555.733C493.911 554.803 492.257 554.338 490.361 554.338C488.466 554.338 486.811 554.803 485.399 555.733C483.986 556.663 482.887 558.027 482.103 559.826C481.33 561.625 480.944 563.835 480.944 566.455C480.944 569.075 481.33 571.284 482.103 573.083C482.887 574.882 483.986 576.246 485.399 577.176C486.811 578.106 488.466 578.571 490.361 578.571C492.257 578.571 493.911 578.106 495.324 577.176C496.736 576.246 497.829 574.882 498.602 573.083C499.386 571.284 499.779 569.075 499.779 566.455ZM551.875 560.895H543.942C543.797 559.868 543.501 558.957 543.055 558.16C542.608 557.351 542.034 556.663 541.334 556.095C540.634 555.528 539.825 555.093 538.907 554.791C538.002 554.489 537.018 554.338 535.955 554.338C534.036 554.338 532.363 554.815 530.939 555.769C529.514 556.711 528.409 558.087 527.624 559.898C526.84 561.697 526.447 563.883 526.447 566.455C526.447 569.099 526.84 571.32 527.624 573.119C528.421 574.918 529.532 576.277 530.957 577.194C532.381 578.112 534.03 578.571 535.901 578.571C536.951 578.571 537.923 578.432 538.817 578.154C539.722 577.876 540.525 577.472 541.226 576.941C541.926 576.397 542.505 575.739 542.964 574.967C543.435 574.194 543.761 573.312 543.942 572.322L551.875 572.359C551.669 574.061 551.156 575.703 550.335 577.285C549.526 578.854 548.434 580.261 547.057 581.505C545.693 582.736 544.063 583.714 542.167 584.439C540.284 585.151 538.153 585.507 535.774 585.507C532.466 585.507 529.508 584.759 526.9 583.261C524.304 581.764 522.251 579.597 520.742 576.76C519.245 573.922 518.496 570.487 518.496 566.455C518.496 562.41 519.257 558.969 520.778 556.131C522.3 553.294 524.364 551.133 526.972 549.648C529.58 548.151 532.514 547.402 535.774 547.402C537.923 547.402 539.916 547.704 541.751 548.308C543.598 548.911 545.234 549.793 546.659 550.952C548.083 552.099 549.243 553.505 550.136 555.172C551.042 556.838 551.621 558.745 551.875 560.895ZM563.108 585V547.909H588.101V554.375H570.95V563.213H586.815V569.678H570.95V578.534H588.173V585H563.108ZM579.299 544.577L575.659 540.158L572.019 544.577H565.444V544.323L572.779 536.354H578.52L585.873 544.323V544.577H579.299ZM617.359 547.909H627.031L637.245 572.83H637.68L647.894 547.909H657.565V585H649.959V560.858H649.651L640.052 584.819H634.872L625.274 560.768H624.966V585H617.359V547.909ZM669.636 585V547.909H694.629V554.375H677.478V563.213H693.343V569.678H677.478V578.534H694.702V585H669.636ZM706.474 585V547.909H721.107C723.909 547.909 726.299 548.41 728.279 549.412C730.271 550.402 731.787 551.809 732.825 553.632C733.876 555.443 734.401 557.574 734.401 560.025C734.401 562.488 733.87 564.607 732.807 566.382C731.745 568.145 730.205 569.497 728.189 570.439C726.184 571.381 723.758 571.852 720.908 571.852H711.11V565.549H719.64C721.138 565.549 722.381 565.344 723.371 564.933C724.361 564.523 725.098 563.907 725.581 563.086C726.076 562.265 726.323 561.245 726.323 560.025C726.323 558.794 726.076 557.755 725.581 556.91C725.098 556.065 724.355 555.425 723.353 554.99C722.363 554.544 721.113 554.32 719.604 554.32H714.316V585H706.474ZM726.504 568.121L735.723 585H727.066L718.047 568.121H726.504ZM745.553 585V547.909H770.546V554.375H753.395V563.213H769.26V569.678H753.395V578.534H770.618V585H745.553ZM815.116 560.895H807.184C807.039 559.868 806.743 558.957 806.296 558.16C805.85 557.351 805.276 556.663 804.576 556.095C803.876 555.528 803.067 555.093 802.149 554.791C801.244 554.489 800.259 554.338 799.197 554.338C797.277 554.338 795.605 554.815 794.18 555.769C792.756 556.711 791.651 558.087 790.866 559.898C790.081 561.697 789.689 563.883 789.689 566.455C789.689 569.099 790.081 571.32 790.866 573.119C791.663 574.918 792.774 576.277 794.198 577.194C795.623 578.112 797.271 578.571 799.143 578.571C800.193 578.571 801.165 578.432 802.058 578.154C802.964 577.876 803.767 577.472 804.467 576.941C805.168 576.397 805.747 575.739 806.206 574.967C806.677 574.194 807.003 573.312 807.184 572.322L815.116 572.359C814.911 574.061 814.398 575.703 813.577 577.285C812.768 578.854 811.675 580.261 810.299 581.505C808.935 582.736 807.305 583.714 805.409 584.439C803.525 585.151 801.394 585.507 799.016 585.507C795.708 585.507 792.75 584.759 790.142 583.261C787.546 581.764 785.493 579.597 783.984 576.76C782.487 573.922 781.738 570.487 781.738 566.455C781.738 562.41 782.499 558.969 784.02 556.131C785.541 553.294 787.606 551.133 790.214 549.648C792.822 548.151 795.756 547.402 799.016 547.402C801.165 547.402 803.157 547.704 804.992 548.308C806.84 548.911 808.476 549.793 809.9 550.952C811.325 552.099 812.484 553.505 813.378 555.172C814.283 556.838 814.863 558.745 815.116 560.895ZM826.35 585V547.909H851.343V554.375H834.192V563.213H850.057V569.678H834.192V578.534H851.415V585H826.35Z" fill="black"/>
<path d="M425.095 1.20688C391.628 5.47355 364.162 18.5402 340.028 41.7402C321.895 58.9402 317.362 67.8736 324.428 72.5402C329.095 75.6069 332.162 74.0069 340.028 64.1402C364.695 33.0736 402.428 15.7402 445.095 15.7402C489.628 15.7402 524.295 33.0736 545.628 66.1402C548.962 71.3402 551.762 76.1402 551.762 76.9402C551.762 78.0069 520.695 78.5402 448.828 78.6736C380.695 78.9402 346.028 79.4736 346.428 80.4069C346.828 81.3402 382.828 81.7402 450.428 81.7402H553.762L554.162 85.3402C554.562 88.2736 553.895 89.0736 551.495 89.6069C549.762 90.0069 499.895 90.6736 440.562 91.0736C323.228 92.0069 327.495 91.7402 319.362 99.4736C304.828 113.207 310.828 136.007 330.295 140.94C332.962 141.607 386.695 142.407 451.362 142.674C564.562 143.207 567.628 143.207 570.562 145.74C574.428 149.34 575.628 153.074 574.162 157.34C571.495 164.807 579.628 164.407 427.895 165.074L287.095 165.74L278.295 170.007C267.362 175.34 257.895 185.207 255.762 193.074C251.895 207.607 263.095 224.274 281.495 231.074C291.095 234.674 300.028 233.207 313.628 225.874C333.895 214.807 342.828 214.807 359.895 226.007C371.095 233.207 378.695 235.74 388.962 235.74C399.228 235.74 404.028 234.14 416.962 226.54C423.228 222.807 430.028 219.474 432.162 218.94C439.495 217.34 447.228 219.607 458.028 226.674C471.095 235.207 476.828 237.207 488.028 237.34C499.095 237.34 503.362 235.874 520.695 226.807C534.295 219.874 534.562 219.74 546.028 219.74C554.962 219.74 559.228 220.407 563.762 222.54C575.762 228.007 582.295 237.474 583.495 251.34L584.162 259.74L548.962 258.94C457.495 257.074 362.962 256.14 358.962 257.34C352.962 258.94 344.028 265.874 339.362 272.54C336.562 276.54 335.228 280.54 334.295 287.874C332.162 303.34 331.362 305.474 326.562 308.674C321.495 312.14 311.362 313.874 306.562 312.274C298.162 309.207 293.495 293.074 294.828 271.607C295.362 264.674 296.028 257.474 296.562 255.474C297.495 251.474 293.495 246.407 289.095 246.407C283.895 246.407 281.495 250.807 279.762 263.207C278.428 272.407 278.428 278.007 279.495 288.007C282.828 316.674 292.162 327.74 312.962 327.74C319.628 327.74 323.628 326.807 329.095 324.274C342.695 318.007 347.362 310.807 349.095 294.14C350.162 282.407 352.428 278.14 359.628 273.874C363.628 271.607 367.628 271.474 479.095 273.207C588.028 274.807 594.562 274.807 596.828 272.674C600.428 268.94 599.895 245.607 595.895 235.474C588.562 216.407 573.362 206.274 549.628 204.14C536.695 203.074 528.695 205.207 510.695 214.54C490.028 225.34 482.695 225.207 466.428 213.74C456.162 206.54 447.628 203.74 435.895 203.74C426.428 203.74 417.228 207.074 408.695 213.607C396.695 222.674 383.762 222.94 370.428 214.274C353.895 203.607 352.295 203.074 337.762 203.074H324.428L308.695 210.94C293.228 218.674 292.962 218.807 287.362 217.074C276.562 213.874 268.295 202.807 271.228 195.207C272.562 191.74 274.162 192.674 277.095 198.407C280.295 204.674 286.695 209.074 292.428 209.074C294.695 209.074 303.095 205.74 311.628 201.474C326.562 193.874 326.962 193.74 338.295 193.74C349.628 193.74 349.895 193.874 359.762 199.874C374.028 208.54 377.628 209.74 389.762 209.74C401.095 209.607 402.695 209.074 417.628 199.874C425.228 195.34 426.028 195.074 437.628 195.074C450.828 195.074 447.895 194.007 473.095 208.274C479.628 212.007 481.628 212.407 491.095 212.407C500.962 212.407 502.428 212.007 511.095 207.074C530.562 196.14 532.828 195.34 543.628 194.674C556.028 194.007 566.562 196.407 579.628 203.074C589.895 208.14 590.428 208.407 590.428 206.407C590.428 204.407 572.695 195.874 563.362 193.474C557.628 192.007 551.628 191.607 543.628 192.007C533.895 192.674 530.695 193.474 523.628 197.074C498.295 210.274 499.628 209.74 490.428 209.607C483.095 209.607 480.428 208.94 473.762 205.074C451.095 192.274 449.495 191.74 438.162 191.74C427.095 191.74 426.028 192.007 409.095 201.34C393.362 210.007 380.428 209.074 362.162 197.874C344.295 186.807 333.362 187.074 310.162 199.074C302.295 203.074 294.962 206.407 293.628 206.407C288.562 206.407 282.695 202.14 279.228 195.74L275.628 189.207L281.762 185.74C284.962 183.74 291.228 181.74 295.362 181.074C299.628 180.54 362.162 180.14 434.428 180.274C536.828 180.407 567.095 180.14 571.762 178.807C581.628 176.14 590.428 164.674 590.428 154.674C590.428 144.54 583.895 134.54 574.695 130.674C568.695 128.14 564.162 128.007 451.228 127.34C338.428 126.54 333.895 126.54 330.562 124.007C325.895 120.54 325.495 115.607 329.628 110.94L332.828 107.074L444.028 106.407C552.028 105.74 555.228 105.607 559.628 103.074C570.695 96.5402 572.695 85.4736 565.228 69.7402C554.295 46.2736 532.562 24.8069 508.695 13.7402C483.495 2.14022 453.228 -2.39312 425.095 1.20688Z" fill="#FE0000"/>
<path d="M417.629 31.8731C416.695 33.4731 419.362 35.7397 422.429 35.7397C425.495 35.7397 428.162 33.4731 427.229 31.8731C426.695 31.0731 424.562 30.4064 422.429 30.4064C420.295 30.4064 418.162 31.0731 417.629 31.8731Z" fill="#FE0000"/>
<path d="M465.629 33.2069C463.895 36.0069 469.495 38.0069 472.962 35.8735C475.495 34.2735 473.629 31.7402 469.762 31.7402C468.029 31.7402 466.162 32.4069 465.629 33.2069Z" fill="#FE0000"/>
<path d="M442.962 47.8737C440.962 51.2071 448.962 53.0737 451.629 49.8737C452.829 48.4071 452.695 47.8737 450.962 47.2071C447.629 46.0071 444.029 46.2737 442.962 47.8737Z" fill="#FE0000"/>
<path d="M391.362 48.5397C389.629 50.2731 392.029 51.7397 396.562 51.7397C399.762 51.7397 401.095 51.0731 401.095 49.7397C401.095 48.4064 399.762 47.7397 396.695 47.7397C394.162 47.7397 391.762 48.1397 391.362 48.5397Z" fill="#FE0000"/>
<path d="M493.628 50.5397C491.762 53.6064 498.562 55.6064 502.428 53.0731C504.162 51.8731 504.162 51.6064 502.428 50.4064C499.762 48.6731 494.828 48.6731 493.628 50.5397Z" fill="#FE0000"/>
<path d="M553.895 290.54C545.762 299.074 550.962 298.674 452.295 298.54C394.962 298.407 362.429 298.807 362.429 299.607C362.429 300.807 435.095 301.74 521.229 301.74H543.362L549.762 297.74C556.429 293.607 560.829 288.54 558.695 287.34C558.162 286.94 555.895 288.407 553.895 290.54Z" fill="#FE0000"/>
<path d="M575.762 292.673C574.695 293.073 570.828 296.273 567.095 299.873C563.495 303.34 557.495 307.607 553.762 309.34L547.095 312.407L455.762 312.807C373.895 313.073 364.295 313.34 362.162 315.34C359.095 318.14 359.095 322.673 362.295 325.607C364.562 327.607 372.162 327.74 457.895 327.473L551.095 327.073L558.828 323.873C573.228 318.14 587.762 303.073 584.295 297.607C582.295 294.273 578.028 291.873 575.762 292.673Z" fill="#FE0000"/>
<path d="M118.56 393.88C119.68 393.88 120.84 394.2 122.04 394.84C123.32 395.4 124.28 396.16 124.92 397.12L154.08 442L148.08 441.76L177.96 397.12C179.48 394.96 181.44 393.88 183.84 393.88C185.76 393.88 187.48 394.56 189 395.92C190.52 397.28 191.28 399.04 191.28 401.2V470.68C191.28 472.76 190.6 474.52 189.24 475.96C187.88 477.32 186.08 478 183.84 478C181.6 478 179.76 477.32 178.32 475.96C176.96 474.52 176.28 472.76 176.28 470.68V414.16L180.96 415.24L156.48 452.56C155.76 453.44 154.84 454.2 153.72 454.84C152.68 455.48 151.6 455.76 150.48 455.68C149.44 455.76 148.36 455.48 147.24 454.84C146.2 454.2 145.32 453.44 144.6 452.56L121.68 416.32L124.8 409.96V470.68C124.8 472.76 124.16 474.52 122.88 475.96C121.6 477.32 119.92 478 117.84 478C115.84 478 114.2 477.32 112.92 475.96C111.64 474.52 111 472.76 111 470.68V401.2C111 399.2 111.72 397.48 113.16 396.04C114.68 394.6 116.48 393.88 118.56 393.88ZM283.24 393.64C285.08 393.64 286.72 394.36 288.16 395.8C289.68 397.16 290.44 398.92 290.44 401.08C290.44 401.8 290.32 402.56 290.08 403.36C289.92 404.08 289.6 404.8 289.12 405.52L261.88 444.52L264.04 436.24V470.68C264.04 472.76 263.32 474.52 261.88 475.96C260.52 477.32 258.92 478 257.08 478C255.08 478 253.36 477.32 251.92 475.96C250.56 474.52 249.88 472.76 249.88 470.68V437.2L250.84 441.04L224.92 406.6C224.12 405.56 223.56 404.56 223.24 403.6C222.92 402.64 222.76 401.76 222.76 400.96C222.76 398.8 223.6 397.04 225.28 395.68C226.96 394.32 228.68 393.64 230.44 393.64C232.68 393.64 234.64 394.76 236.32 397L259.36 428.8L256 428.32L277.24 397.24C278.92 394.84 280.92 393.64 283.24 393.64Z" fill="black"/>
<path d="M383.198 478C380.958 478 379.118 477.32 377.678 475.96C376.318 474.52 375.638 472.76 375.638 470.68V401.32C375.638 399.24 376.318 397.52 377.678 396.16C379.118 394.72 380.878 394 382.958 394H421.958C424.038 394 425.758 394.68 427.118 396.04C428.558 397.32 429.278 399 429.278 401.08C429.278 402.84 428.558 404.4 427.118 405.76C425.758 407.12 424.038 407.8 421.958 407.8H389.558L390.638 406.36V430.48L389.798 428.92H416.558C418.638 428.92 420.358 429.6 421.718 430.96C423.158 432.24 423.878 433.92 423.878 436C423.878 437.76 423.158 439.32 421.718 440.68C420.358 442.04 418.638 442.72 416.558 442.72H389.558L390.638 441.64V470.68C390.638 472.76 389.878 474.52 388.358 475.96C386.918 477.32 385.198 478 383.198 478ZM539.646 436C539.646 442 538.646 447.6 536.646 452.8C534.646 458 531.806 462.6 528.126 466.6C524.526 470.52 520.206 473.6 515.166 475.84C510.206 478.08 504.766 479.2 498.846 479.2C492.926 479.2 487.486 478.08 482.526 475.84C477.566 473.6 473.246 470.52 469.566 466.6C465.966 462.6 463.166 458 461.166 452.8C459.166 447.6 458.166 442 458.166 436C458.166 430 459.166 424.4 461.166 419.2C463.166 414 465.966 409.44 469.566 405.52C473.246 401.52 477.566 398.4 482.526 396.16C487.486 393.92 492.926 392.8 498.846 392.8C504.766 392.8 510.206 393.92 515.166 396.16C520.206 398.4 524.526 401.52 528.126 405.52C531.806 409.44 534.646 414 536.646 419.2C538.646 424.4 539.646 430 539.646 436ZM524.046 436C524.046 430.64 522.966 425.8 520.806 421.48C518.646 417.08 515.686 413.6 511.926 411.04C508.166 408.48 503.806 407.2 498.846 407.2C493.886 407.2 489.526 408.48 485.766 411.04C482.006 413.6 479.046 417.04 476.886 421.36C474.806 425.68 473.766 430.56 473.766 436C473.766 441.36 474.806 446.24 476.886 450.64C479.046 454.96 482.006 458.4 485.766 460.96C489.526 463.52 493.886 464.8 498.846 464.8C503.806 464.8 508.166 463.52 511.926 460.96C515.686 458.4 518.646 454.96 520.806 450.64C522.966 446.24 524.046 441.36 524.046 436ZM581.38 393.88C582.5 393.88 583.66 394.2 584.86 394.84C586.14 395.4 587.1 396.16 587.74 397.12L616.9 442L610.9 441.76L640.78 397.12C642.3 394.96 644.26 393.88 646.66 393.88C648.58 393.88 650.3 394.56 651.82 395.92C653.34 397.28 654.1 399.04 654.1 401.2V470.68C654.1 472.76 653.42 474.52 652.06 475.96C650.7 477.32 648.9 478 646.66 478C644.42 478 642.58 477.32 641.14 475.96C639.78 474.52 639.1 472.76 639.1 470.68V414.16L643.78 415.24L619.3 452.56C618.58 453.44 617.66 454.2 616.54 454.84C615.5 455.48 614.42 455.76 613.3 455.68C612.26 455.76 611.18 455.48 610.06 454.84C609.02 454.2 608.14 453.44 607.42 452.56L584.5 416.32L587.62 409.96V470.68C587.62 472.76 586.98 474.52 585.7 475.96C584.42 477.32 582.74 478 580.66 478C578.66 478 577.02 477.32 575.74 475.96C574.46 474.52 573.82 472.76 573.82 470.68V401.2C573.82 399.2 574.54 397.48 575.98 396.04C577.5 394.6 579.3 393.88 581.38 393.88ZM699.861 394H740.061C742.141 394 743.861 394.68 745.221 396.04C746.661 397.32 747.381 399 747.381 401.08C747.381 403.08 746.661 404.72 745.221 406C743.861 407.2 742.141 407.8 740.061 407.8H706.461L707.541 405.76V429.16L706.581 428.2H734.661C736.741 428.2 738.461 428.88 739.821 430.24C741.261 431.52 741.981 433.2 741.981 435.28C741.981 437.28 741.261 438.92 739.821 440.2C738.461 441.4 736.741 442 734.661 442H706.941L707.541 441.04V465.28L706.581 464.2H740.061C742.141 464.2 743.861 464.92 745.221 466.36C746.661 467.72 747.381 469.32 747.381 471.16C747.381 473.16 746.661 474.8 745.221 476.08C743.861 477.36 742.141 478 740.061 478H699.861C697.781 478 696.021 477.32 694.581 475.96C693.221 474.52 692.541 472.76 692.541 470.68V401.32C692.541 399.24 693.221 397.52 694.581 396.16C696.021 394.72 697.781 394 699.861 394Z" fill="#FE0000"/>
</svg>
