<svg width="1296" height="328" viewBox="0 0 1296 328" fill="none" xmlns="http://www.w3.org/2000/svg">
<path d="M475.308 260.455C475.308 264.499 474.542 267.94 473.008 270.778C471.487 273.615 469.41 275.782 466.778 277.279C464.158 278.765 461.212 279.507 457.94 279.507C454.644 279.507 451.686 278.759 449.066 277.261C446.446 275.764 444.375 273.597 442.854 270.76C441.332 267.922 440.572 264.487 440.572 260.455C440.572 256.41 441.332 252.969 442.854 250.131C444.375 247.294 446.446 245.133 449.066 243.648C451.686 242.151 454.644 241.402 457.94 241.402C461.212 241.402 464.158 242.151 466.778 243.648C469.41 245.133 471.487 247.294 473.008 250.131C474.542 252.969 475.308 256.41 475.308 260.455ZM467.358 260.455C467.358 257.835 466.965 255.625 466.18 253.826C465.408 252.027 464.315 250.663 462.902 249.733C461.49 248.803 459.836 248.338 457.94 248.338C456.044 248.338 454.39 248.803 452.978 249.733C451.565 250.663 450.466 252.027 449.681 253.826C448.909 255.625 448.522 257.835 448.522 260.455C448.522 263.075 448.909 265.284 449.681 267.083C450.466 268.882 451.565 270.246 452.978 271.176C454.39 272.106 456.044 272.571 457.94 272.571C459.836 272.571 461.49 272.106 462.902 271.176C464.315 270.246 465.408 268.882 466.18 267.083C466.965 265.284 467.358 263.075 467.358 260.455ZM524.262 252.576C524.117 251.115 523.495 249.98 522.397 249.172C521.298 248.363 519.807 247.958 517.923 247.958C516.643 247.958 515.563 248.139 514.681 248.501C513.8 248.852 513.124 249.341 512.653 249.968C512.194 250.596 511.965 251.309 511.965 252.105C511.941 252.77 512.08 253.349 512.381 253.844C512.695 254.339 513.124 254.768 513.667 255.13C514.211 255.48 514.838 255.788 515.551 256.054C516.263 256.307 517.024 256.525 517.833 256.706L521.165 257.502C522.783 257.865 524.268 258.348 525.62 258.951C526.973 259.555 528.144 260.298 529.134 261.179C530.124 262.06 530.891 263.099 531.434 264.294C531.989 265.489 532.273 266.86 532.285 268.405C532.273 270.675 531.694 272.643 530.547 274.309C529.412 275.963 527.77 277.249 525.62 278.167C523.483 279.072 520.906 279.525 517.887 279.525C514.893 279.525 512.285 279.066 510.063 278.149C507.854 277.231 506.127 275.873 504.884 274.074C503.652 272.263 503.006 270.023 502.946 267.355H510.534C510.619 268.598 510.975 269.637 511.603 270.47C512.243 271.291 513.094 271.913 514.156 272.335C515.231 272.746 516.444 272.951 517.797 272.951C519.125 272.951 520.278 272.758 521.256 272.371C522.246 271.985 523.012 271.448 523.556 270.76C524.099 270.071 524.371 269.281 524.371 268.387C524.371 267.554 524.123 266.854 523.628 266.286C523.145 265.719 522.433 265.236 521.491 264.837C520.561 264.439 519.42 264.077 518.068 263.751L514.029 262.737C510.902 261.976 508.433 260.787 506.622 259.169C504.811 257.551 503.912 255.371 503.924 252.631C503.912 250.385 504.509 248.423 505.717 246.745C506.936 245.066 508.608 243.756 510.733 242.815C512.858 241.873 515.273 241.402 517.978 241.402C520.73 241.402 523.133 241.873 525.186 242.815C527.25 243.756 528.856 245.066 530.003 246.745C531.15 248.423 531.742 250.367 531.778 252.576H524.262ZM548.716 279H540.313L553.117 241.909H563.223L576.009 279H567.606L558.315 250.385H558.025L548.716 279ZM548.191 264.421H568.041V270.542H548.191V264.421ZM586.084 279V241.909H600.934C603.663 241.909 605.939 242.314 607.762 243.123C609.585 243.931 610.956 245.054 611.873 246.491C612.791 247.916 613.25 249.558 613.25 251.417C613.25 252.866 612.96 254.14 612.381 255.239C611.801 256.325 611.004 257.219 609.99 257.919C608.988 258.607 607.841 259.096 606.549 259.386V259.748C607.961 259.809 609.284 260.207 610.515 260.944C611.759 261.68 612.767 262.712 613.54 264.04C614.312 265.357 614.699 266.926 614.699 268.749C614.699 270.717 614.21 272.474 613.232 274.02C612.266 275.553 610.835 276.766 608.939 277.66C607.044 278.553 604.708 279 601.931 279H586.084ZM593.926 272.589H600.319C602.504 272.589 604.098 272.172 605.1 271.339C606.102 270.494 606.603 269.371 606.603 267.971C606.603 266.944 606.356 266.039 605.861 265.254C605.366 264.469 604.659 263.853 603.742 263.407C602.836 262.96 601.756 262.737 600.5 262.737H593.926V272.589ZM593.926 257.43H599.739C600.814 257.43 601.768 257.243 602.601 256.869C603.446 256.482 604.11 255.939 604.593 255.239C605.088 254.538 605.335 253.699 605.335 252.721C605.335 251.381 604.859 250.3 603.905 249.479C602.963 248.658 601.623 248.248 599.884 248.248H593.926V257.43ZM659.496 260.455C659.496 264.499 658.729 267.94 657.196 270.778C655.675 273.615 653.598 275.782 650.966 277.279C648.346 278.765 645.4 279.507 642.128 279.507C638.832 279.507 635.873 278.759 633.253 277.261C630.633 275.764 628.563 273.597 627.041 270.76C625.52 267.922 624.759 264.487 624.759 260.455C624.759 256.41 625.52 252.969 627.041 250.131C628.563 247.294 630.633 245.133 633.253 243.648C635.873 242.151 638.832 241.402 642.128 241.402C645.4 241.402 648.346 242.151 650.966 243.648C653.598 245.133 655.675 247.294 657.196 250.131C658.729 252.969 659.496 256.41 659.496 260.455ZM651.545 260.455C651.545 257.835 651.153 255.625 650.368 253.826C649.595 252.027 648.503 250.663 647.09 249.733C645.677 248.803 644.023 248.338 642.128 248.338C640.232 248.338 638.578 248.803 637.165 249.733C635.753 250.663 634.654 252.027 633.869 253.826C633.096 255.625 632.71 257.835 632.71 260.455C632.71 263.075 633.096 265.284 633.869 267.083C634.654 268.882 635.753 270.246 637.165 271.176C638.578 272.106 640.232 272.571 642.128 272.571C644.023 272.571 645.677 272.106 647.09 271.176C648.503 270.246 649.595 268.882 650.368 267.083C651.153 265.284 651.545 263.075 651.545 260.455ZM670.915 279V241.909H685.548C688.35 241.909 690.74 242.41 692.72 243.412C694.713 244.402 696.228 245.809 697.266 247.632C698.317 249.443 698.842 251.574 698.842 254.025C698.842 256.488 698.311 258.607 697.248 260.382C696.186 262.145 694.646 263.497 692.63 264.439C690.626 265.381 688.199 265.852 685.349 265.852H675.551V259.549H684.082C685.579 259.549 686.822 259.344 687.812 258.933C688.802 258.523 689.539 257.907 690.022 257.086C690.517 256.265 690.764 255.245 690.764 254.025C690.764 252.794 690.517 251.755 690.022 250.91C689.539 250.065 688.796 249.425 687.794 248.99C686.804 248.544 685.555 248.32 684.045 248.32H678.757V279H670.915ZM690.946 262.121L700.164 279H691.507L682.488 262.121H690.946ZM741.407 266.105H748.072L751.422 270.415L754.719 274.255L760.931 282.043H753.614L749.34 276.79L747.148 273.675L741.407 266.105ZM761.492 260.455C761.492 264.499 760.725 267.94 759.192 270.778C757.671 273.615 755.594 275.782 752.962 277.279C750.342 278.765 747.396 279.507 744.124 279.507C740.828 279.507 737.869 278.759 735.249 277.261C732.629 275.764 730.559 273.597 729.037 270.76C727.516 267.922 726.755 264.487 726.755 260.455C726.755 256.41 727.516 252.969 729.037 250.131C730.559 247.294 732.629 245.133 735.249 243.648C737.869 242.151 740.828 241.402 744.124 241.402C747.396 241.402 750.342 242.151 752.962 243.648C755.594 245.133 757.671 247.294 759.192 250.131C760.725 252.969 761.492 256.41 761.492 260.455ZM753.541 260.455C753.541 257.835 753.149 255.625 752.364 253.826C751.591 252.027 750.499 250.663 749.086 249.733C747.673 248.803 746.019 248.338 744.124 248.338C742.228 248.338 740.574 248.803 739.161 249.733C737.749 250.663 736.65 252.027 735.865 253.826C735.092 255.625 734.706 257.835 734.706 260.455C734.706 263.075 735.092 265.284 735.865 267.083C736.65 268.882 737.749 270.246 739.161 271.176C740.574 272.106 742.228 272.571 744.124 272.571C746.019 272.571 747.673 272.106 749.086 271.176C750.499 270.246 751.591 268.882 752.364 267.083C753.149 265.284 753.541 263.075 753.541 260.455ZM795.821 241.909H803.663V265.996C803.663 268.701 803.017 271.067 801.725 273.096C800.445 275.124 798.652 276.706 796.346 277.841C794.04 278.964 791.354 279.525 788.287 279.525C785.208 279.525 782.516 278.964 780.21 277.841C777.904 276.706 776.111 275.124 774.831 273.096C773.551 271.067 772.911 268.701 772.911 265.996V241.909H780.753V265.326C780.753 266.739 781.061 267.995 781.677 269.093C782.304 270.192 783.186 271.055 784.321 271.683C785.456 272.311 786.778 272.625 788.287 272.625C789.808 272.625 791.13 272.311 792.253 271.683C793.388 271.055 794.264 270.192 794.879 269.093C795.507 267.995 795.821 266.739 795.821 265.326V241.909ZM815.725 279V241.909H840.718V248.375H823.567V257.213H839.432V263.678H823.567V272.534H840.79V279H815.725ZM876.677 241.909L885.642 270.089H885.986L894.969 241.909H903.662L890.876 279H880.77L867.966 241.909H876.677ZM945.729 260.455C945.729 264.499 944.963 267.94 943.429 270.778C941.908 273.615 939.831 275.782 937.199 277.279C934.579 278.765 931.633 279.507 928.361 279.507C925.065 279.507 922.107 278.759 919.487 277.261C916.867 275.764 914.796 273.597 913.275 270.76C911.754 267.922 910.993 264.487 910.993 260.455C910.993 256.41 911.754 252.969 913.275 250.131C914.796 247.294 916.867 245.133 919.487 243.648C922.107 242.151 925.065 241.402 928.361 241.402C931.633 241.402 934.579 242.151 937.199 243.648C939.831 245.133 941.908 247.294 943.429 250.131C944.963 252.969 945.729 256.41 945.729 260.455ZM937.779 260.455C937.779 257.835 937.386 255.625 936.602 253.826C935.829 252.027 934.736 250.663 933.324 249.733C931.911 248.803 930.257 248.338 928.361 248.338C926.466 248.338 924.811 248.803 923.399 249.733C921.986 250.663 920.887 252.027 920.103 253.826C919.33 255.625 918.944 257.835 918.944 260.455C918.944 263.075 919.33 265.284 920.103 267.083C920.887 268.882 921.986 270.246 923.399 271.176C924.811 272.106 926.466 272.571 928.361 272.571C930.257 272.571 931.911 272.106 933.324 271.176C934.736 270.246 935.829 268.882 936.602 267.083C937.386 265.284 937.779 263.075 937.779 260.455ZM989.875 254.895H981.942C981.797 253.868 981.501 252.957 981.055 252.16C980.608 251.351 980.034 250.663 979.334 250.095C978.634 249.528 977.825 249.093 976.907 248.791C976.002 248.489 975.018 248.338 973.955 248.338C972.036 248.338 970.363 248.815 968.939 249.769C967.514 250.711 966.409 252.087 965.624 253.898C964.84 255.697 964.447 257.883 964.447 260.455C964.447 263.099 964.84 265.32 965.624 267.119C966.421 268.918 967.532 270.277 968.957 271.194C970.381 272.112 972.03 272.571 973.901 272.571C974.951 272.571 975.923 272.432 976.817 272.154C977.722 271.876 978.525 271.472 979.226 270.941C979.926 270.397 980.505 269.739 980.964 268.967C981.435 268.194 981.761 267.312 981.942 266.322L989.875 266.359C989.669 268.061 989.156 269.703 988.335 271.285C987.526 272.854 986.434 274.261 985.057 275.505C983.693 276.736 982.063 277.714 980.167 278.439C978.284 279.151 976.153 279.507 973.774 279.507C970.466 279.507 967.508 278.759 964.9 277.261C962.304 275.764 960.251 273.597 958.742 270.76C957.245 267.922 956.496 264.487 956.496 260.455C956.496 256.41 957.257 252.969 958.778 250.131C960.3 247.294 962.364 245.133 964.972 243.648C967.58 242.151 970.514 241.402 973.774 241.402C975.923 241.402 977.916 241.704 979.751 242.308C981.598 242.911 983.234 243.793 984.659 244.952C986.083 246.099 987.243 247.505 988.136 249.172C989.042 250.838 989.621 252.745 989.875 254.895ZM1001.11 279V241.909H1026.1V248.375H1008.95V257.213H1024.82V263.678H1008.95V272.534H1026.17V279H1001.11ZM1017.3 238.577L1013.66 234.158L1010.02 238.577H1003.44V238.323L1010.78 230.354H1016.52L1023.87 238.323V238.577H1017.3ZM1055.36 241.909H1065.03L1075.24 266.83H1075.68L1085.89 241.909H1095.57V279H1087.96V254.858H1087.65L1078.05 278.819H1072.87L1063.27 254.768H1062.97V279H1055.36V241.909ZM1107.64 279V241.909H1132.63V248.375H1115.48V257.213H1131.34V263.678H1115.48V272.534H1132.7V279H1107.64ZM1144.47 279V241.909H1159.11C1161.91 241.909 1164.3 242.41 1166.28 243.412C1168.27 244.402 1169.79 245.809 1170.83 247.632C1171.88 249.443 1172.4 251.574 1172.4 254.025C1172.4 256.488 1171.87 258.607 1170.81 260.382C1169.74 262.145 1168.21 263.497 1166.19 264.439C1164.18 265.381 1161.76 265.852 1158.91 265.852H1149.11V259.549H1157.64C1159.14 259.549 1160.38 259.344 1161.37 258.933C1162.36 258.523 1163.1 257.907 1163.58 257.086C1164.08 256.265 1164.32 255.245 1164.32 254.025C1164.32 252.794 1164.08 251.755 1163.58 250.91C1163.1 250.065 1162.36 249.425 1161.35 248.99C1160.36 248.544 1159.11 248.32 1157.6 248.32H1152.32V279H1144.47ZM1164.5 262.121L1173.72 279H1165.07L1156.05 262.121H1164.5ZM1183.55 279V241.909H1208.55V248.375H1191.39V257.213H1207.26V263.678H1191.39V272.534H1208.62V279H1183.55ZM1253.12 254.895H1245.18C1245.04 253.868 1244.74 252.957 1244.3 252.16C1243.85 251.351 1243.28 250.663 1242.58 250.095C1241.88 249.528 1241.07 249.093 1240.15 248.791C1239.24 248.489 1238.26 248.338 1237.2 248.338C1235.28 248.338 1233.61 248.815 1232.18 249.769C1230.76 250.711 1229.65 252.087 1228.87 253.898C1228.08 255.697 1227.69 257.883 1227.69 260.455C1227.69 263.099 1228.08 265.32 1228.87 267.119C1229.66 268.918 1230.77 270.277 1232.2 271.194C1233.62 272.112 1235.27 272.571 1237.14 272.571C1238.19 272.571 1239.17 272.432 1240.06 272.154C1240.96 271.876 1241.77 271.472 1242.47 270.941C1243.17 270.397 1243.75 269.739 1244.21 268.967C1244.68 268.194 1245 267.312 1245.18 266.322L1253.12 266.359C1252.91 268.061 1252.4 269.703 1251.58 271.285C1250.77 272.854 1249.68 274.261 1248.3 275.505C1246.93 276.736 1245.3 277.714 1243.41 278.439C1241.53 279.151 1239.39 279.507 1237.02 279.507C1233.71 279.507 1230.75 278.759 1228.14 277.261C1225.55 275.764 1223.49 273.597 1221.98 270.76C1220.49 267.922 1219.74 264.487 1219.74 260.455C1219.74 256.41 1220.5 252.969 1222.02 250.131C1223.54 247.294 1225.61 245.133 1228.21 243.648C1230.82 242.151 1233.76 241.402 1237.02 241.402C1239.17 241.402 1241.16 241.704 1242.99 242.308C1244.84 242.911 1246.48 243.793 1247.9 244.952C1249.33 246.099 1250.48 247.505 1251.38 249.172C1252.28 250.838 1252.86 252.745 1253.12 254.895ZM1264.35 279V241.909H1289.34V248.375H1272.19V257.213H1288.06V263.678H1272.19V272.534H1289.42V279H1264.35Z" fill="black"/>
<path d="M451.08 67.84C452.573 67.84 454.12 68.2667 455.72 69.12C457.427 69.8667 458.707 70.88 459.56 72.16L498.44 132L490.44 131.68L530.28 72.16C532.307 69.28 534.92 67.84 538.12 67.84C540.68 67.84 542.973 68.7467 545 70.56C547.027 72.3733 548.04 74.72 548.04 77.6V170.24C548.04 173.013 547.133 175.36 545.32 177.28C543.507 179.093 541.107 180 538.12 180C535.133 180 532.68 179.093 530.76 177.28C528.947 175.36 528.04 173.013 528.04 170.24V94.88L534.28 96.32L501.64 146.08C500.68 147.253 499.453 148.267 497.96 149.12C496.573 149.973 495.133 150.347 493.64 150.24C492.253 150.347 490.813 149.973 489.32 149.12C487.933 148.267 486.76 147.253 485.8 146.08L455.24 97.76L459.4 89.28V170.24C459.4 173.013 458.547 175.36 456.84 177.28C455.133 179.093 452.893 180 450.12 180C447.453 180 445.267 179.093 443.56 177.28C441.853 175.36 441 173.013 441 170.24V77.6C441 74.9333 441.96 72.64 443.88 70.72C445.907 68.8 448.307 67.84 451.08 67.84ZM670.654 67.52C673.107 67.52 675.294 68.48 677.214 70.4C679.24 72.2133 680.254 74.56 680.254 77.44C680.254 78.4 680.094 79.4133 679.774 80.48C679.56 81.44 679.134 82.4 678.494 83.36L642.174 135.36L645.054 124.32V170.24C645.054 173.013 644.094 175.36 642.174 177.28C640.36 179.093 638.227 180 635.774 180C633.107 180 630.814 179.093 628.894 177.28C627.08 175.36 626.174 173.013 626.174 170.24V125.6L627.454 130.72L592.894 84.8C591.827 83.4133 591.08 82.08 590.654 80.8C590.227 79.52 590.014 78.3467 590.014 77.28C590.014 74.4 591.134 72.0533 593.374 70.24C595.614 68.4267 597.907 67.52 600.254 67.52C603.24 67.52 605.854 69.0133 608.094 72L638.814 114.4L634.334 113.76L662.654 72.32C664.894 69.12 667.56 67.52 670.654 67.52Z" fill="black"/>
<path d="M803.93 180C800.943 180 798.49 179.093 796.57 177.28C794.757 175.36 793.85 173.013 793.85 170.24V77.76C793.85 74.9867 794.757 72.6933 796.57 70.88C798.49 68.96 800.837 68 803.61 68H855.61C858.383 68 860.677 68.9067 862.49 70.72C864.41 72.4267 865.37 74.6667 865.37 77.44C865.37 79.7867 864.41 81.8667 862.49 83.68C860.677 85.4933 858.383 86.4 855.61 86.4H812.41L813.85 84.48V116.64L812.73 114.56H848.41C851.183 114.56 853.477 115.467 855.29 117.28C857.21 118.987 858.17 121.227 858.17 124C858.17 126.347 857.21 128.427 855.29 130.24C853.477 132.053 851.183 132.96 848.41 132.96H812.41L813.85 131.52V170.24C813.85 173.013 812.837 175.36 810.81 177.28C808.89 179.093 806.597 180 803.93 180ZM1012.53 124C1012.53 132 1011.19 139.467 1008.53 146.4C1005.86 153.333 1002.07 159.467 997.167 164.8C992.367 170.027 986.607 174.133 979.887 177.12C973.274 180.107 966.021 181.6 958.127 181.6C950.234 181.6 942.981 180.107 936.367 177.12C929.754 174.133 923.994 170.027 919.087 164.8C914.287 159.467 910.554 153.333 907.887 146.4C905.221 139.467 903.887 132 903.887 124C903.887 116 905.221 108.533 907.887 101.6C910.554 94.6667 914.287 88.5867 919.087 83.36C923.994 78.0267 929.754 73.8667 936.367 70.88C942.981 67.8933 950.234 66.4 958.127 66.4C966.021 66.4 973.274 67.8933 979.887 70.88C986.607 73.8667 992.367 78.0267 997.167 83.36C1002.07 88.5867 1005.86 94.6667 1008.53 101.6C1011.19 108.533 1012.53 116 1012.53 124ZM991.727 124C991.727 116.853 990.287 110.4 987.407 104.64C984.527 98.7733 980.581 94.1333 975.567 90.72C970.554 87.3067 964.741 85.6 958.127 85.6C951.514 85.6 945.701 87.3067 940.687 90.72C935.674 94.1333 931.727 98.72 928.847 104.48C926.074 110.24 924.687 116.747 924.687 124C924.687 131.147 926.074 137.653 928.847 143.52C931.727 149.28 935.674 153.867 940.687 157.28C945.701 160.693 951.514 162.4 958.127 162.4C964.741 162.4 970.554 160.693 975.567 157.28C980.581 153.867 984.527 149.28 987.407 143.52C990.287 137.653 991.727 131.147 991.727 124ZM1068.17 67.84C1069.67 67.84 1071.21 68.2667 1072.81 69.12C1074.52 69.8667 1075.8 70.88 1076.65 72.16L1115.53 132L1107.53 131.68L1147.37 72.16C1149.4 69.28 1152.01 67.84 1155.21 67.84C1157.77 67.84 1160.07 68.7467 1162.09 70.56C1164.12 72.3733 1165.13 74.72 1165.13 77.6V170.24C1165.13 173.013 1164.23 175.36 1162.41 177.28C1160.6 179.093 1158.2 180 1155.21 180C1152.23 180 1149.77 179.093 1147.85 177.28C1146.04 175.36 1145.13 173.013 1145.13 170.24V94.88L1151.37 96.32L1118.73 146.08C1117.77 147.253 1116.55 148.267 1115.05 149.12C1113.67 149.973 1112.23 150.347 1110.73 150.24C1109.35 150.347 1107.91 149.973 1106.41 149.12C1105.03 148.267 1103.85 147.253 1102.89 146.08L1072.33 97.76L1076.49 89.28V170.24C1076.49 173.013 1075.64 175.36 1073.93 177.28C1072.23 179.093 1069.99 180 1067.21 180C1064.55 180 1062.36 179.093 1060.65 177.28C1058.95 175.36 1058.09 173.013 1058.09 170.24V77.6C1058.09 74.9333 1059.05 72.64 1060.97 70.72C1063 68.8 1065.4 67.84 1068.17 67.84ZM1226.15 68H1279.75C1282.52 68 1284.81 68.9067 1286.63 70.72C1288.55 72.4267 1289.51 74.6667 1289.51 77.44C1289.51 80.1067 1288.55 82.2933 1286.63 84C1284.81 85.6 1282.52 86.4 1279.75 86.4H1234.95L1236.39 83.68V114.88L1235.11 113.6H1272.55C1275.32 113.6 1277.61 114.507 1279.43 116.32C1281.35 118.027 1282.31 120.267 1282.31 123.04C1282.31 125.707 1281.35 127.893 1279.43 129.6C1277.61 131.2 1275.32 132 1272.55 132H1235.59L1236.39 130.72V163.04L1235.11 161.6H1279.75C1282.52 161.6 1284.81 162.56 1286.63 164.48C1288.55 166.293 1289.51 168.427 1289.51 170.88C1289.51 173.547 1288.55 175.733 1286.63 177.44C1284.81 179.147 1282.52 180 1279.75 180H1226.15C1223.37 180 1221.03 179.093 1219.11 177.28C1217.29 175.36 1216.39 173.013 1216.39 170.24V77.76C1216.39 74.9867 1217.29 72.6933 1219.11 70.88C1221.03 68.96 1223.37 68 1226.15 68Z" fill="#FE0000"/>
<path d="M170.095 1.20688C136.628 5.47355 109.162 18.5402 85.0284 41.7402C66.8951 58.9402 62.3618 67.8736 69.4284 72.5402C74.0951 75.6069 77.1618 74.0069 85.0284 64.1402C109.695 33.0736 147.428 15.7402 190.095 15.7402C234.628 15.7402 269.295 33.0736 290.628 66.1402C293.962 71.3402 296.762 76.1402 296.762 76.9402C296.762 78.0069 265.695 78.5402 193.828 78.6736C125.695 78.9402 91.0284 79.4736 91.4284 80.4069C91.8284 81.3402 127.828 81.7402 195.428 81.7402H298.762L299.162 85.3402C299.562 88.2736 298.895 89.0736 296.495 89.6069C294.762 90.0069 244.895 90.6736 185.562 91.0736C68.2284 92.0069 72.4951 91.7402 64.3618 99.4736C49.8284 113.207 55.8284 136.007 75.2951 140.94C77.9618 141.607 131.695 142.407 196.362 142.674C309.562 143.207 312.628 143.207 315.562 145.74C319.428 149.34 320.628 153.074 319.162 157.34C316.495 164.807 324.628 164.407 172.895 165.074L32.0951 165.74L23.2951 170.007C12.3618 175.34 2.8951 185.207 0.761765 193.074C-3.1049 207.607 8.0951 224.274 26.4951 231.074C36.0951 234.674 45.0284 233.207 58.6284 225.874C78.8951 214.807 87.8284 214.807 104.895 226.007C116.095 233.207 123.695 235.74 133.962 235.74C144.228 235.74 149.028 234.14 161.962 226.54C168.228 222.807 175.028 219.474 177.162 218.94C184.495 217.34 192.228 219.607 203.028 226.674C216.095 235.207 221.828 237.207 233.028 237.34C244.095 237.34 248.362 235.874 265.695 226.807C279.295 219.874 279.562 219.74 291.028 219.74C299.962 219.74 304.228 220.407 308.762 222.54C320.762 228.007 327.295 237.474 328.495 251.34L329.162 259.74L293.962 258.94C202.495 257.074 107.962 256.14 103.962 257.34C97.9618 258.94 89.0284 265.874 84.3618 272.54C81.5618 276.54 80.2284 280.54 79.2951 287.874C77.1618 303.34 76.3618 305.474 71.5618 308.674C66.4951 312.14 56.3618 313.874 51.5618 312.274C43.1618 309.207 38.4951 293.074 39.8284 271.607C40.3618 264.674 41.0284 257.474 41.5618 255.474C42.4951 251.474 38.4951 246.407 34.0951 246.407C28.8951 246.407 26.4951 250.807 24.7618 263.207C23.4284 272.407 23.4284 278.007 24.4951 288.007C27.8284 316.674 37.1618 327.74 57.9618 327.74C64.6284 327.74 68.6284 326.807 74.0951 324.274C87.6951 318.007 92.3618 310.807 94.0951 294.14C95.1618 282.407 97.4284 278.14 104.628 273.874C108.628 271.607 112.628 271.474 224.095 273.207C333.028 274.807 339.562 274.807 341.828 272.674C345.428 268.94 344.895 245.607 340.895 235.474C333.562 216.407 318.362 206.274 294.628 204.14C281.695 203.074 273.695 205.207 255.695 214.54C235.028 225.34 227.695 225.207 211.428 213.74C201.162 206.54 192.628 203.74 180.895 203.74C171.428 203.74 162.228 207.074 153.695 213.607C141.695 222.674 128.762 222.94 115.428 214.274C98.8951 203.607 97.2951 203.074 82.7618 203.074H69.4284L53.6951 210.94C38.2284 218.674 37.9618 218.807 32.3618 217.074C21.5618 213.874 13.2951 202.807 16.2284 195.207C17.5618 191.74 19.1618 192.674 22.0951 198.407C25.2951 204.674 31.6951 209.074 37.4284 209.074C39.6951 209.074 48.0951 205.74 56.6284 201.474C71.5618 193.874 71.9618 193.74 83.2951 193.74C94.6284 193.74 94.8951 193.874 104.762 199.874C119.028 208.54 122.628 209.74 134.762 209.74C146.095 209.607 147.695 209.074 162.628 199.874C170.228 195.34 171.028 195.074 182.628 195.074C195.828 195.074 192.895 194.007 218.095 208.274C224.628 212.007 226.628 212.407 236.095 212.407C245.962 212.407 247.428 212.007 256.095 207.074C275.562 196.14 277.828 195.34 288.628 194.674C301.028 194.007 311.562 196.407 324.628 203.074C334.895 208.14 335.428 208.407 335.428 206.407C335.428 204.407 317.695 195.874 308.362 193.474C302.628 192.007 296.628 191.607 288.628 192.007C278.895 192.674 275.695 193.474 268.628 197.074C243.295 210.274 244.628 209.74 235.428 209.607C228.095 209.607 225.428 208.94 218.762 205.074C196.095 192.274 194.495 191.74 183.162 191.74C172.095 191.74 171.028 192.007 154.095 201.34C138.362 210.007 125.428 209.074 107.162 197.874C89.2951 186.807 78.3618 187.074 55.1618 199.074C47.2951 203.074 39.9618 206.407 38.6284 206.407C33.5618 206.407 27.6951 202.14 24.2284 195.74L20.6284 189.207L26.7618 185.74C29.9618 183.74 36.2284 181.74 40.3618 181.074C44.6284 180.54 107.162 180.14 179.428 180.274C281.828 180.407 312.095 180.14 316.762 178.807C326.628 176.14 335.428 164.674 335.428 154.674C335.428 144.54 328.895 134.54 319.695 130.674C313.695 128.14 309.162 128.007 196.228 127.34C83.4284 126.54 78.8951 126.54 75.5618 124.007C70.8951 120.54 70.4951 115.607 74.6284 110.94L77.8284 107.074L189.028 106.407C297.028 105.74 300.228 105.607 304.628 103.074C315.695 96.5402 317.695 85.4736 310.228 69.7402C299.295 46.2736 277.562 24.8069 253.695 13.7402C228.495 2.14022 198.228 -2.39312 170.095 1.20688Z" fill="#FE0000"/>
<path d="M162.629 31.8731C161.695 33.4731 164.362 35.7397 167.429 35.7397C170.495 35.7397 173.162 33.4731 172.229 31.8731C171.695 31.0731 169.562 30.4064 167.429 30.4064C165.295 30.4064 163.162 31.0731 162.629 31.8731Z" fill="#FE0000"/>
<path d="M210.629 33.2069C208.895 36.0069 214.495 38.0069 217.962 35.8735C220.495 34.2735 218.629 31.7402 214.762 31.7402C213.029 31.7402 211.162 32.4069 210.629 33.2069Z" fill="#FE0000"/>
<path d="M187.962 47.8737C185.962 51.2071 193.962 53.0737 196.629 49.8737C197.829 48.4071 197.695 47.8737 195.962 47.2071C192.629 46.0071 189.029 46.2737 187.962 47.8737Z" fill="#FE0000"/>
<path d="M136.362 48.5397C134.629 50.2731 137.029 51.7397 141.562 51.7397C144.762 51.7397 146.095 51.0731 146.095 49.7397C146.095 48.4064 144.762 47.7397 141.695 47.7397C139.162 47.7397 136.762 48.1397 136.362 48.5397Z" fill="#FE0000"/>
<path d="M238.628 50.5397C236.762 53.6064 243.562 55.6064 247.428 53.0731C249.162 51.8731 249.162 51.6064 247.428 50.4064C244.762 48.6731 239.828 48.6731 238.628 50.5397Z" fill="#FE0000"/>
<path d="M298.895 290.54C290.762 299.074 295.962 298.674 197.295 298.54C139.962 298.407 107.429 298.807 107.429 299.607C107.429 300.807 180.095 301.74 266.229 301.74H288.362L294.762 297.74C301.429 293.607 305.829 288.54 303.695 287.34C303.162 286.94 300.895 288.407 298.895 290.54Z" fill="#FE0000"/>
<path d="M320.762 292.673C319.695 293.073 315.828 296.273 312.095 299.873C308.495 303.34 302.495 307.607 298.762 309.34L292.095 312.407L200.762 312.807C118.895 313.073 109.295 313.34 107.162 315.34C104.095 318.14 104.095 322.673 107.295 325.607C109.562 327.607 117.162 327.74 202.895 327.473L296.095 327.073L303.828 323.873C318.228 318.14 332.762 303.073 329.295 297.607C327.295 294.273 323.028 291.873 320.762 292.673Z" fill="#FE0000"/>
</svg>
